# xmcd
#
# Track frame offsets:
#	150
#	16642
#	34792
#	57900
#	76988
#	93055
#	109803
#	134201
#	149290
#	174952
#	197661
#	207230
#	231934
#	264383
#
# Disc length: 3753 seconds
#
# Revision: 1
# Processed by: cddbd v1.4PL0 Copyright (c) Steve Scherf et al.
# Submitted via: audiograbber 1.81.03
#
DISCID=b80ea70e
DTITLE=The Celophane Flower - Too good To Be Famous
DYEAR=2002
DGENRE=Country
TTITLE0=As Beautiful As You Are
TTITLE1=Roots Gone
TTITLE2=Betrayal
TTITLE3=Billy Jim Bob's Blues
TTITLE4=On The Outside
TTITLE5=Bourbon Dreams
TTITLE6=Loved Alone
TTITLE7=Country Song
TTITLE8=World Has Turned
TTITLE9=Always Apart
TTITLE10=Clay
TTITLE11=Lighten Up The Dark
TTITLE12=Something Sad
TTITLE13=In Darwin Is It Hot
EXTD=
EXTT0=
EXTT1=
EXTT2=
EXTT3=
EXTT4=
EXTT5=
EXTT6=
EXTT7=
EXTT8=
EXTT9=
EXTT10=
EXTT11=
EXTT12=
EXTT13=
PLAYORDER=
